<svg xmlns="http://www.w3.org/2000/svg" id="Layer_1" data-name="Layer 1" viewBox="0 0 49.5 39.62">
    <defs>
        <style>
            .cls-1{fill:#3a4d95}.cls-2{fill:#02a569}
        </style>
    </defs>
    <path d="M35.25 22.6L29.62 21v-1.81a5.68 5.68 0 0 0 1.77-2.82c.09-.34.16-.62.22-.83a2 2 0 0 0 1.54-1.65l.34-2.16A2.21 2.21 0 0 0 33 10a2.13 2.13 0 0 0-.26-.26A7.21 7.21 0 0 0 33 8a7.56 7.56 0 0 0-2.6-5.61 1.17 1.17 0 0 0-.4-.82A7.73 7.73 0 0 0 25.3 0h-.69a6.81 6.81 0 0 0-3.73 1.35 1.17 1.17 0 0 0-.92.22A8.55 8.55 0 0 0 17 8a7.14 7.14 0 0 0 .24 1.72 1.72 1.72 0 0 0-.27.27 2.22 2.22 0 0 0-.51 1.79l.34 2.16a2 2 0 0 0 1.54 1.64c.06.21.13.49.22.83a5.68 5.68 0 0 0 1.77 2.82V21l-5.63 1.6a5.34 5.34 0 0 0-4.18 5.22v8.63a3.17 3.17 0 0 0 3.17 3.17h22.57a3.18 3.18 0 0 0 3.18-3.17v-8.63a5.34 5.34 0 0 0-4.19-5.22zm-16.8-9.23h-.22l-.32-2A1.32 1.32 0 0 0 19 9.6l-.17-.47a.86.86 0 0 0 .07-.1l1.29-2.81a4.09 4.09 0 0 0 3-1l.84.58a7.37 7.37 0 0 0 5.58 1.16L31 9.14v.08l-.13.35a1.32 1.32 0 0 0 1.13 1.8l-.32 2h-.22a1.3 1.3 0 0 0-1.3 1.06c0 .06-.08.35-.47 1.79a3.76 3.76 0 0 1-1.88 2.37l-1.06.57a3.81 3.81 0 0 1-3.59 0l-1.06-.57a3.76 3.76 0 0 1-1.88-2.37c-.4-1.48-.46-1.74-.47-1.76a1.32 1.32 0 0 0-1.3-1.09zM37.87 37a.89.89 0 0 1-.9.88h-24A.89.89 0 0 1 12 37v-9.32a3.18 3.18 0 0 1 2.52-3.12h.09L21 22.73a1.89 1.89 0 0 0 1.47-1.85V21a6.07 6.07 0 0 0 5 0v-.12a1.89 1.89 0 0 0 1.45 1.85l6.37 1.81h.09a3.18 3.18 0 0 1 2.52 3.12z" class="cls-1" transform="translate(-.25)"/>
    <path d="M11 23.07a6.7 6.7 0 0 1 3.32-1.85l3.76-1.06a5.91 5.91 0 0 0 .34-.88 6.92 6.92 0 0 1-1.2-2.28.81.81 0 0 0-.18.4l-.37 1.4a3 3 0 0 1-1.51 1.91l-.83.44a3.08 3.08 0 0 1-2.89 0l-.82-.44a3.08 3.08 0 0 1-1.52-1.96c-.28-1.07-.34-1.32-.35-1.36a.94.94 0 0 0-.91-.77h-.21l-.09-.21-.25-1.53.23-.05a1 1 0 0 0 .56-.37.93.93 0 0 0 .11-.84l-.14-.43v-.16l1-2.23h.25a3 3 0 0 0 2.08-.71l.14-.12.75.51a5.44 5.44 0 0 0 2.71 1 4.12 4.12 0 0 1 .17-1.16 4.41 4.41 0 0 1-2.22-.76l-1.15-.79a.57.57 0 0 0-.73.07l-.33.31A1.83 1.83 0 0 1 9 9.58a.46.46 0 0 0-.2 0h-.46l.22-.4A4.63 4.63 0 0 1 9 8.44l.06-.09h.11a.92.92 0 0 0 .5-.18 5.53 5.53 0 0 1 2.91-1.38h.61a4.81 4.81 0 0 1 2.38.63 10.23 10.23 0 0 1 .32-1.89 6.89 6.89 0 0 0-2.7-.53h-.61A5.75 5.75 0 0 0 9.4 6.09H9.11a.86.86 0 0 0-.55.19A7.38 7.38 0 0 0 6 11.85a6.63 6.63 0 0 0 .18 1.4v.15l-.11.1a1.37 1.37 0 0 0-.17.17 1.85 1.85 0 0 0-.42 1.48l.3 1.9A1.67 1.67 0 0 0 7 18.39h.14l.21.79a4.82 4.82 0 0 0 1.48 2.39l.08.07v1.73l-5 1.43a4.6 4.6 0 0 0-3.66 4.53v6A2.68 2.68 0 0 0 2.93 38H9.1v-1.8H2.93a.85.85 0 0 1-.85-.85v-6a2.75 2.75 0 0 1 2.18-2.7l.13.22-.07-.24 5.27-1.49h.05a6.47 6.47 0 0 1 1.15-1.78c.07-.12.14-.21.21-.29zM49.75 35.35v-6a4.6 4.6 0 0 0-3.6-4.49l-5-1.43v-1.75l.08-.07a5 5 0 0 0 1.48-2.39l.2-.78.14-.05a1.66 1.66 0 0 0 1.2-1.34l.31-1.9a1.8 1.8 0 0 0-.43-1.48 1.14 1.14 0 0 0-.15-.16l-.12-.1v-.15a6.57 6.57 0 0 0 .14-1.42 6.56 6.56 0 0 0-2.17-4.78L41.8 7v-.09a1 1 0 0 0-.35-.61 6.72 6.72 0 0 0-4-1.35h-.65a5.32 5.32 0 0 0-2.72.86 9.09 9.09 0 0 1 .28 2 4.59 4.59 0 0 1 2.44-1h.61a4.72 4.72 0 0 1 2.46.68h.09v.11a.9.9 0 0 0 .34.54 4.72 4.72 0 0 1 1.38 1.69l.36.73-.7-.41a.58.58 0 0 0-.46-.05 4.41 4.41 0 0 1-3.76-.59L36 8.74a.58.58 0 0 0-.73.07l-.27.31a1.84 1.84 0 0 1-.55.37 3.78 3.78 0 0 1 .44 1.08 3.12 3.12 0 0 0 .76-.47l.14-.12.75.51a5.52 5.52 0 0 0 4.16.89h.16L42 13.15v.09h-.25l.24.08-.12.3a1 1 0 0 0 .1.85 1 1 0 0 0 .56.38l.23.05-.28 1.74h-.21a.91.91 0 0 0-1 .73l-.37 1.4a3 3 0 0 1-1.51 1.91l-.83.44a3.06 3.06 0 0 1-2.88 0l-.83-.44a3.09 3.09 0 0 1-1.52-1.91C33 17.6 33 17.39 33 17.38a1 1 0 0 0-.26-.49 7.07 7.07 0 0 1-1.16 2.31 4.72 4.72 0 0 0 .38 1l3.67 1a6.61 6.61 0 0 1 3.32 1.86l.29.33a6.56 6.56 0 0 1 1 1.66h.13l5.28 1.5v.26l.05-.24a2.76 2.76 0 0 1 2.18 2.7v6a.86.86 0 0 1-.86.85h-6.21V38h6.25a2.69 2.69 0 0 0 2.69-2.65z" class="cls-1" transform="translate(-.25)"/>
    <path d="M26.87 24.8v.1a.31.31 0 0 1-.05.1l-.86 2 1.38 5.06-.55 1.13L25 37l-1.78-3.71-.55-1.13L24 27.1l-.87-2a.41.41 0 0 1-.05-.09v-.1a.34.34 0 0 1 0-.1.29.29 0 0 1 0-.1l.06-.06 1.48-1.37a.44.44 0 0 1 .47 0l1.48 1.37a.17.17 0 0 1 .06.06.37.37 0 0 1 .05.11.3.3 0 0 1 .19-.02z" class="cls-2" transform="translate(-.25)"/>
</svg>
