<svg xmlns="http://www.w3.org/2000/svg" id="Layer_1" data-name="Layer 1" viewBox="0 0 49.5 39.25">
    <defs>
        <style>
            .cls-1,.cls-2{fill:none;stroke-width:1.5px}.cls-1{stroke:#3a4d95}.cls-2{stroke:#02a569}.cls-3{fill:#02a569}
        </style>
    </defs>
    <path id="Forma_1_copy" d="M28.08 11.36v-.07a13.66 13.66 0 0 0-13-10A13.66 13.66 0 0 0 1.5 15a14 14 0 0 0 1.76 6.77 12.74 12.74 0 0 0 2.24 2.94c-2.62 4.07 0 0-2.56 4.05L15 28.71a13.32 13.32 0 0 0 5.42-1.15l.16-.07" class="cls-1" data-name="Forma 1 copy" transform="translate(-.75 -.55)"/>
    <path id="Forma_1_copy_2" d="M34.84 9.68a14.65 14.65 0 0 1 12.75 21.88 13.41 13.41 0 0 1-2.43 3.14c2.84 4.36 0 0 2.78 4.34L34.82 39a14.65 14.65 0 1 1-.14-29.3z" class="cls-1" data-name="Forma 1 copy 2" transform="translate(-.75 -.55)"/>
    <path d="M10.34 13.41s.12-4.2 4.2-4.2a3.39 3.39 0 0 1 3.73 3.73s-.41 3.73-3.73 3.73v2.79" class="cls-2" transform="translate(-.75 -.55)"/>
    <circle cx="13.73" cy="20.31" r=".68" class="cls-3"/>
    <circle id="Ellipse_9_copy" cx="34.52" cy="28.22" r=".69" class="cls-3" data-name="Ellipse 9 copy"/>
    <path d="M33.83 17.52h1.43v9.32h-1.43z" class="cls-3"/>
</svg>
